<?xml version="1.0" encoding="UTF-8" standalone="no"?>
<!DOCTYPE svg PUBLIC "-//W3C//DTD SVG 1.1//EN" "http://www.w3.org/Graphics/SVG/1.1/DTD/svg11.dtd">
<svg version="1.1" xmlns="http://www.w3.org/2000/svg" xmlns:xlink="http://www.w3.org/1999/xlink" preserveAspectRatio="xMidYMid meet" viewBox="0 0 640 640" width="640" height="640"><defs><path d="M103.08 212.99C93.58 241.39 106.87 270.4 119.55 295.69C132.21 321.6 146.12 346.92 158.14 373.44C167.64 394.43 180.92 419.1 177.77 442.58C175.25 459.26 169.53 475.29 166.38 491.97C163.85 503.07 174.61 491.97 178.4 488.89C200.55 470.37 224.59 449.38 233.46 420.98C237.88 406.8 235.35 393.81 230.31 380.25C225.26 367.29 219.55 354.96 213.83 341.97C201.81 316.03 189.16 290.12 176.47 264.18C171.43 254.92 166.34 245.05 161.93 235.17C157.51 224.68 154.95 213.57 154.32 201.85C153.69 192.59 153.69 183.94 154.95 174.68C155.58 167.88 157.48 161.72 158.11 154.92C158.77 151.27 155.62 150 151.2 153.11C131.58 169.14 111.32 188.89 103.08 212.99ZM392.97 212.99C383.47 241.39 396.75 270.4 409.44 295.69C422.09 321.63 436.04 346.92 448.06 373.48C457.56 394.46 470.84 419.14 467.69 442.62C465.17 459.29 459.45 475.32 456.3 492C453.78 503.11 464.54 492 468.32 488.93C490.47 470.4 514.51 449.42 523.38 421.02C527.8 406.83 525.27 393.85 520.23 380.28C515.18 367.33 509.47 354.99 503.75 342C491.73 316.06 479.08 290.16 466.39 264.22C461.35 254.96 456.26 245.08 451.85 235.2C447.43 224.71 444.87 213.6 444.24 201.88C443.61 192.62 443.61 183.97 444.87 174.71C445.5 167.91 447.4 161.76 448.03 154.96C448.69 151.27 445.54 150 441.09 153.11C421.46 169.17 401.2 188.93 392.97 212.99Z" id="lBifaqRKe"></path><path d="M232.2 170.99C222.7 188.89 221.44 207.42 226.49 225.91C232.83 248.12 241.66 270.34 251.16 291.93C269.53 333.29 293.57 372.18 311.3 414.15C317.65 428.95 324.59 445.62 325.85 462.3C327.11 482.67 320.14 504.27 314.46 523.41C313.2 528.98 309.41 536.36 310.04 541.93C310.67 546.24 313.2 544.39 315.75 542.55C326.51 534.52 337.27 525.25 346.77 515.99C372.71 491.93 402.46 459.81 399.94 422.18C398.68 406.73 391.07 391.93 384.77 377.75C377.79 361.11 370.22 345.08 362.61 329.02C348.7 298.77 334.12 269.14 318.94 239.51C313.9 229.02 307.55 219.14 303.77 208.65C298.06 194.47 295.53 179.63 294.9 164.83C294.27 153.73 294.9 142.01 296.16 130.9C296.79 123.48 299.32 116.71 299.32 109.3C301.21 102.5 297.42 101.88 291.71 106.19C269.56 124.1 245.52 145.7 232.2 170.99Z" id="a2VuPMyzzA"></path><path d="M353.38 77L88.36 77L88.36 557.06L549.26 557.06L549.26 206.25L618.39 206.25L618.39 612.45L19.23 612.45L19.23 21.61L353.38 21.61L353.38 77ZM399.47 174.13L399.47 21.61L618.39 174.13L399.47 174.13Z" id="dbyOIBGCz"></path></defs><g><g><g><use xlink:href="#lBifaqRKe" opacity="1" fill="#165098" fill-opacity="1"></use><g><use xlink:href="#lBifaqRKe" opacity="1" fill-opacity="0" stroke="#000000" stroke-width="1" stroke-opacity="0"></use></g></g><g><use xlink:href="#a2VuPMyzzA" opacity="1" fill="#5c9dd5" fill-opacity="1"></use><g><use xlink:href="#a2VuPMyzzA" opacity="1" fill-opacity="0" stroke="#000000" stroke-width="1" stroke-opacity="0"></use></g></g><g><use xlink:href="#dbyOIBGCz" opacity="1" fill="#8242b2" fill-opacity="1"></use></g></g></g></svg>