<?xml version="1.0" encoding="UTF-8" standalone="no"?>
<!DOCTYPE svg PUBLIC "-//W3C//DTD SVG 1.1//EN" "http://www.w3.org/Graphics/SVG/1.1/DTD/svg11.dtd">
<svg version="1.1" xmlns="http://www.w3.org/2000/svg" xmlns:xlink="http://www.w3.org/1999/xlink" preserveAspectRatio="xMidYMid meet" viewBox="0 0 640 640" width="640" height="640"><defs><path d="M4.29 1.61L405.06 1.61L405.06 638.39L4.29 638.39L4.29 1.61Z" id="a1sztGPe5a"></path><path d="M376.32 225.17L569.43 225.17L569.43 638.39L376.32 638.39L376.32 225.17Z" id="a1FtsuUiE"></path><path d="M110.73 298.61C124.16 326.53 138.92 353.82 151.67 382.41C161.75 405.03 175.84 431.62 172.5 456.92C169.83 474.9 163.76 492.18 160.41 510.15C157.73 522.12 169.15 510.15 173.17 506.83C196.67 486.87 222.18 464.25 231.59 433.64C236.28 418.36 233.59 404.36 228.24 389.75C222.89 375.78 216.83 362.49 210.76 348.49C198.01 320.53 184.58 292.61 171.12 264.65C165.77 254.67 160.37 244.03 155.69 233.38C151 222.08 148.29 210.11 147.62 197.47C146.95 187.49 146.95 178.17 148.29 168.19C148.96 160.86 150.97 154.22 151.64 146.89C152.34 142.96 149 141.59 144.31 144.94C123.49 162.22 102 183.51 93.25 209.48C83.17 240.09 97.27 271.35 110.73 298.61ZM418.3 298.61C431.72 326.57 446.53 353.82 459.28 382.45C469.36 405.06 483.45 431.66 480.11 456.96C477.43 474.93 471.36 492.21 468.02 510.18C465.35 522.16 476.76 510.18 480.77 506.88C504.28 486.9 529.78 464.29 539.19 433.69C543.88 418.39 541.2 404.4 535.85 389.78C530.49 375.82 524.44 362.52 518.37 348.52C505.61 320.56 492.19 292.65 478.73 264.69C473.38 254.71 467.98 244.07 463.3 233.42C458.61 222.11 455.89 210.14 455.23 197.51C454.56 187.53 454.56 178.2 455.89 168.22C456.56 160.89 458.58 154.27 459.25 146.94C459.95 142.96 456.61 141.59 451.88 144.94C431.06 162.25 409.56 183.55 400.83 209.48C390.75 240.09 404.84 271.35 418.3 298.61Z" id="c36LnVSEN6"></path><path d="M110.73 298.61C124.16 326.53 138.92 353.82 151.67 382.41C161.75 405.03 175.84 431.62 172.5 456.92C169.83 474.9 163.76 492.18 160.41 510.15C157.73 522.12 169.15 510.15 173.17 506.83C196.67 486.87 222.18 464.25 231.59 433.64C236.28 418.36 233.59 404.36 228.24 389.75C222.89 375.78 216.83 362.49 210.76 348.49C198.01 320.53 184.58 292.61 171.12 264.65C165.77 254.67 160.37 244.03 155.69 233.38C151 222.08 148.29 210.11 147.62 197.47C146.95 187.49 146.95 178.17 148.29 168.19C148.96 160.86 150.97 154.22 151.64 146.89C152.34 142.96 149 141.59 144.31 144.94C123.49 162.22 102 183.51 93.25 209.48C83.17 240.09 97.27 271.35 110.73 298.61ZM418.3 298.61C431.72 326.57 446.53 353.82 459.28 382.45C469.36 405.06 483.45 431.66 480.11 456.96C477.43 474.93 471.36 492.21 468.02 510.18C465.35 522.16 476.76 510.18 480.77 506.88C504.28 486.9 529.78 464.29 539.19 433.69C543.88 418.39 541.2 404.4 535.85 389.78C530.49 375.82 524.44 362.52 518.37 348.52C505.61 320.56 492.19 292.65 478.73 264.69C473.38 254.71 467.98 244.07 463.3 233.42C458.61 222.11 455.89 210.14 455.23 197.51C454.56 187.53 454.56 178.2 455.89 168.22C456.56 160.89 458.58 154.27 459.25 146.94C459.95 142.96 456.61 141.59 451.88 144.94C431.06 162.25 409.56 183.55 400.83 209.48C390.75 240.09 404.84 271.35 418.3 298.61Z" id="lGSPLCos"></path><path d="M224.19 223.4C230.92 247.34 240.29 271.29 250.37 294.56C269.86 339.13 295.36 381.05 314.18 426.28C320.91 442.23 328.28 460.2 329.61 478.18C330.95 500.13 323.55 523.41 317.53 544.04C316.19 550.04 312.17 557.99 312.84 564C313.51 568.64 316.19 566.65 318.9 564.66C330.31 556.01 341.73 546.02 351.81 536.04C379.33 510.11 410.9 475.49 408.22 434.94C406.89 418.28 398.81 402.33 392.13 387.05C384.72 369.12 376.69 351.84 368.62 334.53C353.86 301.93 338.39 270 322.28 238.06C316.93 226.76 310.2 216.11 306.19 204.8C300.13 189.52 297.44 173.53 296.78 157.58C296.11 145.61 296.78 132.98 298.11 121.01C298.78 113.01 301.46 105.71 301.46 97.73C303.47 90.4 299.45 89.73 293.39 94.38C269.89 113.68 244.38 136.96 230.25 164.21C220.17 183.51 218.83 203.48 224.19 223.4Z" id="a5zDButMcS"></path><path d="M224.19 223.4C230.92 247.34 240.29 271.29 250.37 294.56C269.86 339.13 295.36 381.05 314.18 426.28C320.91 442.23 328.28 460.2 329.61 478.18C330.95 500.13 323.55 523.41 317.53 544.04C316.19 550.04 312.17 557.99 312.84 564C313.51 568.64 316.19 566.65 318.9 564.66C330.31 556.01 341.73 546.02 351.81 536.04C379.33 510.11 410.9 475.49 408.22 434.94C406.89 418.28 398.81 402.33 392.13 387.05C384.72 369.12 376.69 351.84 368.62 334.53C353.86 301.93 338.39 270 322.28 238.06C316.93 226.76 310.2 216.11 306.19 204.8C300.13 189.52 297.44 173.53 296.78 157.58C296.11 145.61 296.78 132.98 298.11 121.01C298.78 113.01 301.46 105.71 301.46 97.73C303.47 90.4 299.45 89.73 293.39 94.38C269.89 113.68 244.38 136.96 230.25 164.21C220.17 183.51 218.83 203.48 224.19 223.4Z" id="b2gMrzlNR"></path><path d="M75.49 61.31L75.49 578.69L564.51 578.69L564.51 200.61L637.86 200.61L637.86 638.39L2.14 638.39L2.14 1.61L356.68 1.61L356.68 61.31L75.49 61.31ZM405.58 1.61L637.86 165.99L405.58 165.99L405.58 1.61Z" id="b2t9yk2EkU"></path><path d="M360.69 167.7L640 167.7L640 225.17L360.69 225.17L360.69 167.7Z" id="cQBvkqcQH"></path></defs><g><g><g><use xlink:href="#a1sztGPe5a" opacity="1" fill="#f9f8fb" fill-opacity="1"></use></g><g><use xlink:href="#a1FtsuUiE" opacity="1" fill="#f9f8fb" fill-opacity="1"></use></g><g><use xlink:href="#c36LnVSEN6" opacity="1" fill="#165098" fill-opacity="1"></use><g><use xlink:href="#c36LnVSEN6" opacity="1" fill-opacity="0" stroke="#000000" stroke-width="1" stroke-opacity="0"></use></g></g><g><use xlink:href="#lGSPLCos" opacity="1" fill="#000000" fill-opacity="0"></use><g><use xlink:href="#lGSPLCos" opacity="1" fill-opacity="0" stroke="#000000" stroke-width="1" stroke-opacity="0"></use></g></g><g><use xlink:href="#a5zDButMcS" opacity="1" fill="#5c9dd5" fill-opacity="1"></use><g><use xlink:href="#a5zDButMcS" opacity="1" fill-opacity="0" stroke="#000000" stroke-width="1" stroke-opacity="0"></use></g></g><g><use xlink:href="#b2gMrzlNR" opacity="1" fill="#000000" fill-opacity="0"></use><g><use xlink:href="#b2gMrzlNR" opacity="1" fill-opacity="0" stroke="#000000" stroke-width="1" stroke-opacity="0"></use></g></g><g><use xlink:href="#b2t9yk2EkU" opacity="1" fill="#010002" fill-opacity="1"></use><g><use xlink:href="#b2t9yk2EkU" opacity="1" fill-opacity="0" stroke="#000000" stroke-width="1" stroke-opacity="0"></use></g></g><g><use xlink:href="#cQBvkqcQH" opacity="1" fill="#fefefe" fill-opacity="1"></use></g></g></g></svg>