<?xml version="1.0" encoding="UTF-8" standalone="no"?>
<!DOCTYPE svg PUBLIC "-//W3C//DTD SVG 1.1//EN" "http://www.w3.org/Graphics/SVG/1.1/DTD/svg11.dtd">
<svg version="1.1" xmlns="http://www.w3.org/2000/svg" xmlns:xlink="http://www.w3.org/1999/xlink" preserveAspectRatio="xMidYMid meet" viewBox="0 0 640 640" width="640" height="640"><defs><path d="M362.84 77.08L166.6 77.08L166.6 457.18L507.89 457.18L507.89 179.41L559.08 179.41L559.08 501.03L115.4 501.03L115.4 33.22L362.84 33.22L362.84 77.08ZM396.97 153.99L396.97 33.22L559.08 153.99L396.97 153.99Z" id="d125YwGxC"></path><path d="" id="amOGAoHSD"></path><path d="M188.97 125.17L231.49 125.17L231.49 419.43L188.97 419.43L188.97 125.17Z" id="bIXt4nV5G"></path><path d="M260.69 125.17L303.22 125.17L303.22 419.43L260.69 419.43L260.69 125.17Z" id="c2O907DUB5"></path><path d="M337.24 125.17L379.77 125.17L379.77 419.43L337.24 419.43L337.24 125.17Z" id="e5QwyikHr5"></path></defs><g><g><g><use xlink:href="#d125YwGxC" opacity="1" fill="#1397ca" fill-opacity="1"></use></g><g><g><use xlink:href="#amOGAoHSD" opacity="1" fill-opacity="0" stroke="#000000" stroke-width="1" stroke-opacity="1"></use></g></g><g><use xlink:href="#bIXt4nV5G" opacity="1" fill="#1350ca" fill-opacity="1"></use></g><g><use xlink:href="#c2O907DUB5" opacity="1" fill="#13c4ca" fill-opacity="1"></use></g><g><use xlink:href="#e5QwyikHr5" opacity="1" fill="#1350ca" fill-opacity="1"></use></g></g></g></svg>